<?xml version="1.0" standalone="no"?>
<!DOCTYPE svg PUBLIC "-//W3C//DTD SVG 20010904//EN"
 "http://www.w3.org/TR/2001/REC-SVG-20010904/DTD/svg10.dtd">
<svg version="1.0" xmlns="http://www.w3.org/2000/svg"
 width="260.000000pt" height="260.000000pt" viewBox="0 0 260.000000 260.000000"
 preserveAspectRatio="xMidYMid meet">
<metadata>
Created by potrace 1.11, written by Peter Selinger 2001-2013
</metadata>
<g transform="translate(0.000000,260.000000) scale(0.100000,-0.100000)"
fill="#000000" stroke="none">
<path d="M995 2251 c-42 -20 -75 -46 -112 -89 -29 -33 -53 -65 -53 -70 0 -5
-7 -23 -15 -40 -24 -46 -35 -135 -26 -194 9 -57 5 -68 -65 -141 -17 -18 -45
-69 -63 -112 -17 -44 -36 -89 -41 -100 -35 -79 -46 -309 -21 -412 27 -111 113
-233 192 -273 43 -22 49 -45 49 -183 0 -86 -1 -89 -32 -121 -26 -26 -49 -37
-106 -49 -75 -17 -172 -54 -172 -67 0 -4 -10 -12 -23 -17 -35 -16 -117 -90
-152 -137 -40 -54 -100 -173 -108 -213 -11 -58 19 -38 38 25 33 104 57 145
126 216 75 77 191 147 271 163 l32 6 -47 -61 c-26 -34 -52 -64 -57 -67 -12 -8
-59 -110 -77 -170 -8 -27 -19 -54 -23 -60 -5 -5 -11 -27 -15 -48 -6 -30 -4
-37 8 -37 9 0 18 13 22 32 27 138 95 256 217 379 l83 83 10 -85 c11 -94 41
-147 95 -169 42 -17 240 -8 302 15 54 19 60 29 67 113 l6 63 54 19 c65 22 90
45 101 95 12 54 -14 91 -71 100 -68 12 -25 25 81 25 92 0 223 -14 241 -26 11
-7 -19 -31 -77 -63 -85 -47 -210 -223 -252 -352 -18 -54 -42 -182 -42 -219 0
-7 38 -10 117 -8 l117 3 7 30 c30 122 43 163 58 185 10 14 22 37 26 50 13 43
75 133 118 174 69 63 130 89 225 94 45 2 110 -1 143 -7 64 -13 128 -44 111
-55 -6 -3 -29 -39 -51 -80 -43 -79 -76 -199 -87 -325 l-7 -71 162 0 161 0 0
60 c0 32 -4 69 -9 82 -5 13 -14 57 -20 98 -28 182 -69 255 -171 304 -39 18
-64 21 -194 22 l-149 2 -54 46 c-78 65 -125 77 -330 83 l-173 6 0 47 c0 44 20
80 45 80 20 0 156 98 213 154 75 72 89 101 108 221 32 206 -2 503 -67 580 -9
11 -28 39 -43 61 -35 54 -99 88 -206 109 -47 9 -93 21 -102 26 -23 12 -28 11
-28 -3 0 -29 -53 -124 -83 -151 -40 -35 -165 -97 -192 -96 -20 1 -20 1 0 6 11
3 22 8 25 12 3 4 25 15 50 25 61 24 76 39 117 121 32 61 37 81 41 160 4 84 2
92 -22 128 -30 44 -31 48 -10 40 8 -3 29 -31 47 -61 35 -64 47 -57 18 9 -24
54 -42 70 -99 92 -59 23 -88 21 -157 -12z m99 -15 c39 -16 69 -56 91 -118 14
-42 13 -51 -5 -125 -23 -95 -40 -130 -77 -164 -59 -55 -172 -75 -246 -44 -47
19 -62 69 -52 167 12 116 88 225 190 274 59 28 57 28 99 10z m306 -309 c38
-10 50 -20 77 -62 17 -27 40 -61 50 -75 20 -28 43 -96 63 -181 19 -86 9 -318
-18 -392 -24 -67 -102 -159 -164 -194 -22 -13 -68 -47 -102 -78 -52 -45 -67
-66 -89 -122 -40 -102 -48 -161 -46 -352 1 -199 3 -194 -82 -206 -68 -10 -140
2 -173 28 l-28 23 -10 234 c-9 213 -12 239 -32 280 -27 51 -51 67 -40 26 9
-37 -4 -32 -63 23 -54 50 -78 93 -116 211 -29 89 -28 249 1 335 l20 60 1 -47
c1 -59 32 -98 106 -133 81 -38 140 -16 190 69 30 52 32 99 5 160 -28 66 -68
88 -145 80 -67 -7 -109 -25 -119 -50 -4 -9 -9 -15 -11 -12 -10 9 41 107 76
146 19 21 39 47 45 58 11 18 12 18 31 2 33 -30 90 -48 150 -48 82 0 111 11
181 66 46 37 69 64 89 107 27 56 29 57 68 56 22 0 60 -6 85 -12z m-570 -452
c0 -8 -4 -15 -9 -15 -13 0 -22 16 -14 24 11 11 23 6 23 -9z m607 -886 c31 -26
1 -69 -74 -108 -20 -10 -21 -9 -19 38 1 27 7 55 14 63 6 8 8 18 4 23 -11 12
59 -3 75 -16z m-123 -105 c4 -9 4 -19 2 -21 -8 -8 -26 8 -26 23 0 19 16 18 24
-2z"/>
<path d="M893 2070 c-38 -23 -42 -52 -14 -89 18 -23 29 -26 106 -21 64 4 74
50 21 92 -47 38 -75 42 -113 18z m22 -31 c-8 -12 -35 -12 -35 0 0 11 22 20 33
14 4 -2 5 -9 2 -14z m115 -29 c0 -5 -7 -10 -15 -10 -8 0 -15 5 -15 10 0 6 7
10 15 10 8 0 15 -4 15 -10z"/>
<path d="M1174 1621 c-52 -9 -112 -53 -130 -97 -8 -18 -14 -56 -14 -85 0 -44
4 -55 32 -81 35 -33 88 -61 132 -72 38 -9 126 35 150 75 28 48 32 128 8 182
-29 66 -90 92 -178 78z m56 -141 c0 -11 -4 -20 -10 -20 -5 0 -10 9 -10 20 0
11 5 20 10 20 6 0 10 -9 10 -20z"/>
<path d="M1040 1079 c-120 -18 -124 -20 -128 -66 -3 -35 0 -42 19 -48 29 -10
122 -10 188 0 l54 7 -6 50 c-4 28 -8 52 -10 54 -9 10 -68 11 -117 3z"/>
<path d="M1380 560 c0 -13 5 -20 13 -17 6 2 12 10 12 17 0 7 -6 15 -12 18 -8
2 -13 -5 -13 -18z"/>
</g>
</svg>
